<svg version="1.2" xmlns="http://www.w3.org/2000/svg" viewBox="0 0 44 41" width="44" height="41">
	<title>Tool bar</title>
	<style>
		.s0 { fill: #546076 } 
	</style>
	<g id="Tool bar">
		<g id="3">
			<path id="-e-cart" fill-rule="evenodd" class="s0" d="m22.3 37.1c0 2.2-1.7 3.9-3.8 3.9-2.2 0-3.9-1.7-3.9-3.9 0-2.1 1.7-3.9 3.9-3.9 2.1 0 3.8 1.8 3.8 3.9zm-2.1 0c0-0.9-0.8-1.7-1.7-1.7-1 0-1.8 0.8-1.8 1.7 0 1 0.8 1.7 1.8 1.7 0.9 0 1.7-0.7 1.7-1.7zm15.7 0c0 2.2-1.7 3.9-3.9 3.9-2.1 0-3.8-1.7-3.8-3.9 0-2.1 1.7-3.9 3.8-3.9 2.2 0 3.9 1.8 3.9 3.9zm-2.2 0c0-0.9-0.7-1.7-1.7-1.7-0.9 0-1.7 0.8-1.7 1.7 0 1 0.8 1.7 1.7 1.7 1 0 1.7-0.7 1.7-1.7zm0.4-23.3c0 0.6-0.5 1.1-1.1 1.1h-15.5c-0.6 0-1.1-0.5-1.1-1.1 0-0.6 0.5-1.1 1.1-1.1h15.5c0.6 0 1.1 0.5 1.1 1.1zm-0.9 5.6c0 0.6-0.5 1.1-1.1 1.1h-13.8c-0.6 0-1-0.5-1-1.1 0-0.6 0.4-1.1 1-1.1h13.8c0.6 0 1.1 0.5 1.1 1.1zm10.8-9.7l-3.1 14.7c-0.2 1-1.1 1.8-2.1 1.8h-26.7l0.6 3.1h25.9c0.6 0 1.1 0.5 1.1 1.1 0 0.6-0.5 1-1.1 1h-25.9c-1 0-1.9-0.7-2.1-1.7l-5.2-25.5-4.7-2.1c-0.6-0.3-0.8-0.9-0.6-1.4 0.2-0.6 0.9-0.8 1.4-0.6l4.8 2.1c0.6 0.2 1.1 0.8 1.2 1.5l0.7 3.3h33.6c0.7 0 1.3 0.3 1.7 0.8 0.4 0.6 0.6 1.2 0.5 1.9zm-2.2-0.5h-33.2l3.1 14.8h27.1z"/>
		</g>
	</g>
</svg>