<svg version="1.2" xmlns="http://www.w3.org/2000/svg" viewBox="0 0 44 44" width="44" height="44">
	<title>Tool bar</title>
	<style>
		.s0 { fill: #546076 } 
	</style>
	<g id="Tool bar">
		<g id="2">
			<path id="-e-chart" fill-rule="evenodd" class="s0" d="m44 3.7c0 2-1.6 3.7-3.7 3.7-0.7 0-1.3-0.2-1.9-0.5l-12.8 12.8c0.4 0.5 0.5 1.2 0.5 1.8 0 2.1-1.6 3.7-3.6 3.7-2.1 0-3.7-1.6-3.7-3.7 0-0.6 0.1-1.3 0.5-1.8l-2.8-2.7c-0.5 0.3-1.1 0.5-1.8 0.5-0.7 0-1.3-0.2-1.9-0.5l-5.9 5.9c0.3 0.5 0.5 1.2 0.5 1.8 0 2.1-1.7 3.7-3.7 3.7-2.1 0-3.7-1.6-3.7-3.7 0-2 1.6-3.6 3.7-3.6 0.7 0 1.3 0.1 1.8 0.4l6-5.9c-0.3-0.5-0.5-1.2-0.5-1.8 0-2.1 1.6-3.7 3.7-3.7 2 0 3.7 1.6 3.7 3.7 0 0.6-0.2 1.3-0.5 1.8l2.7 2.7q0.8-0.4 1.9-0.4c0.6 0 1.3 0.1 1.8 0.4l12.8-12.8q-0.5-0.8-0.5-1.8c0-2.1 1.7-3.7 3.7-3.7 2.1 0 3.7 1.6 3.7 3.7zm-1.9 0c0-1-0.8-1.8-1.8-1.8-1 0-1.8 0.8-1.8 1.8 0 1 0.8 1.8 1.8 1.8 1 0 1.8-0.8 1.8-1.8zm-36.6 21c0-0.9-0.8-1.8-1.8-1.8-1 0-1.8 0.9-1.8 1.8 0 1 0.8 1.8 1.8 1.8 1 0 1.8-0.8 1.8-1.8zm11-10.9c0-1-0.8-1.8-1.8-1.8-1 0-1.8 0.8-1.8 1.8 0 1 0.8 1.8 1.8 1.8 1 0 1.8-0.8 1.8-1.8zm7.7 7.7c0-0.9-0.8-1.7-1.7-1.7-1 0-1.8 0.8-1.8 1.7 0 1 0.8 1.8 1.8 1.8 0.9 0 1.7-0.8 1.7-1.8zm-24.2 20.6h2.7v-10h1.9v10h9.1v-18.3h1.9v18.3h6.4v-12.8h1.9v12.8h15.5v-26.5h1.9v26.5h2.7v1.9h-44z"/>
		</g>
	</g>
</svg>