<svg version="1.2" xmlns="http://www.w3.org/2000/svg" viewBox="0 0 44 44" width="44" height="44">
	<g id="Tool bar">
		<g id="4">
			<path id="-e-coin" fill-rule="evenodd" d="m28.3 25.6c0 2.6-2 4.7-4.6 4.7 0 0-0.6 0-0.6 0v2.3c0 0.7-0.5 1.2-1.1 1.2-0.6 0-1.1-0.5-1.1-1.2v-2.3h-3.1c-0.6 0-1.2-0.5-1.2-1.1 0-0.6 0.6-1.2 1.2-1.2h5.8c1.4 0 2.5-1.1 2.5-2.4 0-1.4-1.1-2.5-2.5-2.5h-3.2c-2.6 0-4.7-2.1-4.7-4.7 0-2.6 2.1-4.7 4.7-4.7h0.5v-2.3c0-0.6 0.5-1.1 1.1-1.1 0.6 0 1.1 0.5 1.1 1.1v2.3h3c0.7 0 1.2 0.5 1.2 1.1 0 0.6-0.5 1.2-1.2 1.2h-5.7c-1.4 0-2.5 1.1-2.5 2.4 0 1.4 1.1 2.5 2.5 2.5h3.2c2.6 0 4.7 2.1 4.7 4.7zm15.7-3.6c0 5.9-2.3 11.4-6.4 15.6-4.2 4.1-9.7 6.4-15.6 6.4-5.9 0-11.4-2.3-15.6-6.4-4.1-4.2-6.4-9.7-6.4-15.6 0-5.9 2.3-11.4 6.4-15.6 4.2-4.1 9.7-6.4 15.6-6.4 5.9 0 11.4 2.3 15.6 6.4 4.1 4.2 6.4 9.7 6.4 15.6zm-2.2 0c0-10.9-8.9-19.8-19.8-19.8-10.9 0-19.8 8.9-19.8 19.8 0 10.9 8.9 19.8 19.8 19.8 10.9 0 19.8-8.9 19.8-19.8z"/>
		</g>
	</g>
</svg>