<?xml version="1.0" encoding="UTF-8"?>
<svg width="5.9941mm" height="5.9941mm" version="1.1" viewBox="0 0 5.9941 5.9941" xmlns="http://www.w3.org/2000/svg">
 <style/>
 <g transform="translate(-178.03 -125.26)">
  <g >
   <path d="m181.02 125.26c-1.6522 0-2.9961 1.3458-2.9961 2.998 0 1.6522 1.3438 2.9961 2.9961 2.9961 1.6522 0 2.998-1.3438 2.998-2.9961s-1.3458-2.998-2.998-2.998zm0 0.5293c1.3663 0 2.4688 1.1025 2.4688 2.4688s-1.1025 2.4668-2.4688 2.4668c-1.3663 0-2.4668-1.1005-2.4668-2.4668s1.1005-2.4688 2.4668-2.4688z"  color-rendering="auto" dominant-baseline="auto" image-rendering="auto" shape-rendering="auto" />
   <path d="m181.02 126.15a2.1143 2.1143 0 0 0-2.1141 2.1146 2.1143 2.1143 0 0 0 2.1141 2.1141 2.1143 2.1143 0 0 0 2.1146-2.1141 2.1143 2.1143 0 0 0-2.1146-2.1146zm-0.80615 1.1064h0.40308v0.80667h0.80615v-0.80667h0.40308v2.0159h-0.40308v-0.80615h-0.80615v0.80615h-0.40308z"/>
  </g>
 </g>
</svg>
