<svg version="1.2" xmlns="http://www.w3.org/2000/svg" viewBox="0 0 44 38" width="44" height="38">
	<g id="Tool bar">
		<g id="1">
			<path id="-e-dashboard-Shape " fill-rule="evenodd" d="m0 4.6c0-2.5 2.1-4.6 4.7-4.6 2.6 0 4.8 2.1 4.8 4.7 0 2.5-2.2 4.6-4.8 4.6-2.6 0-4.7-2.1-4.7-4.7zm2.2 0c0 1.4 1.1 2.5 2.5 2.5 1.4 0 2.6-1.1 2.6-2.5 0-1.3-1.2-2.4-2.6-2.4-1.4 0-2.5 1.1-2.5 2.4zm-2.2 14.4c0-2.6 2.1-4.6 4.7-4.6 2.6 0 4.8 2 4.8 4.6 0 2.6-2.2 4.6-4.8 4.6-2.6 0-4.7-2-4.7-4.6zm2.2 0c0 1.4 1.1 2.5 2.5 2.5 1.4 0 2.6-1.1 2.6-2.5 0-1.4-1.2-2.5-2.6-2.5-1.4 0-2.5 1.1-2.5 2.5zm-2.2 14.4c0-2.6 2.1-4.7 4.7-4.7 2.6 0 4.8 2.1 4.8 4.7 0 2.5-2.2 4.6-4.8 4.6-2.6 0-4.7-2.1-4.7-4.6zm2.2-0.1c0 1.4 1.1 2.5 2.5 2.5 1.4 0 2.6-1.1 2.6-2.5 0-1.3-1.2-2.4-2.6-2.4-1.4 0-2.5 1.1-2.5 2.4zm12.5-28.7c0-0.6 0.5-1 1.1-1h27.1c0.6 0 1.1 0.4 1.1 1 0 0.6-0.5 1.1-1.1 1.1h-27.1c-0.6 0-1.1-0.5-1.1-1.1zm0 14.4c0-0.6 0.5-1.1 1.1-1.1h27.1c0.6 0 1.1 0.5 1.1 1.1 0 0.6-0.5 1.1-1.1 1.1h-27.1c-0.6 0-1.1-0.5-1.1-1.1zm0 14.3c0-0.6 0.5-1 1.1-1h27.1c0.6 0 1.1 0.4 1.1 1 0 0.6-0.5 1.1-1.1 1.1h-27.1c-0.6 0-1.1-0.5-1.1-1.1z"/>
		</g>
	</g>
</svg>