<svg version="1.2" xmlns="http://www.w3.org/2000/svg" viewBox="0 0 32 35" width="32" height="35">
	<g id="Title bar">
		<path id="-e-refresh" d="m6.5 6.9c5.2-4.6 12.9-4.7 18.2-0.4l-4.2 0.1c-0.5 0-0.9 0.5-0.9 1 0 0.5 0.4 0.9 0.9 0.9q0.1 0 0.1 0l6.3-0.2c0.6 0 1-0.4 1-1q0 0 0-0.1l-0.3-6.3c0-0.5-0.4-0.9-1-0.9-0.5 0-0.9 0.5-0.9 1l0.2 4c-2.6-2.2-5.8-3.4-9.2-3.6-4.3-0.2-8.3 1.3-11.5 4.1-4.3 3.9-6.1 9.9-4.8 15.5 0.2 0.5 0.5 0.8 1 0.8q0.1 0 0.2-0.1c0.5-0.1 0.8-0.6 0.7-1.1-1.2-5 0.4-10.2 4.2-13.7zm25.1 7.1c-0.2-0.5-0.7-0.9-1.2-0.7-0.5 0.1-0.8 0.6-0.7 1.1 1.2 5-0.4 10.2-4.2 13.7-2.7 2.4-6 3.6-9.4 3.6-3.1 0-6.3-1.1-8.9-3.3l4.2-0.3c0.6-0.1 1-0.5 0.9-1.1 0-0.5-0.5-0.9-1-0.9l-6.4 0.6c-0.5 0.1-0.9 0.5-0.9 1.1l0.6 6.3c0 0.5 0.5 0.9 1 0.9q0 0 0 0c0.6-0.1 1-0.5 0.9-1.1l-0.3-3.8c2.6 2.1 5.7 3.3 9.1 3.5q0.5 0 0.9 0c3.9 0 7.6-1.5 10.6-4.1 4.3-3.9 6.1-9.9 4.8-15.5z"/>
	</g>
</svg>