<svg version="1.2" xmlns="http://www.w3.org/2000/svg" viewBox="0 0 45 44" width="45" height="44">
	<title>Tool bar</title>
	<style>
		.s0 { fill: #546076 } 
	</style>
	<g id="Tool bar">
		<g id="5">
			<path id="-e-settings" fill-rule="evenodd" class="s0" d="m45 20v4c0 1.1-0.8 2.1-2 2.2q-1.2 0.2-2.5 0.4-0.1 0-0.2 0.2-0.6 2.1-1.7 4.1-0.1 0.1 0 0.2 0.8 1.1 1.6 2.1c0.6 0.9 0.5 2.2-0.3 3l-2.7 2.7c-0.8 0.8-2.1 0.9-3 0.3q-1-0.8-2.1-1.6-0.1-0.1-0.2 0-2 1.1-4.1 1.7-0.2 0.1-0.2 0.2-0.2 1.3-0.4 2.5c-0.1 1.2-1.1 2-2.2 2h-4c-1.1 0-2.1-0.8-2.2-2q-0.2-1.2-0.4-2.5 0-0.1-0.2-0.2-2.1-0.6-4.1-1.7-0.1-0.1-0.2 0-1.1 0.8-2.1 1.6c-0.9 0.6-2.2 0.5-3-0.3l-2.7-2.7c-0.8-0.8-0.9-2.1-0.3-3q0.8-1 1.6-2.1 0.1-0.1 0-0.2-1.1-2-1.7-4.1-0.1-0.2-0.2-0.2-1.3-0.2-2.5-0.4c-1.2-0.1-2-1.1-2-2.2v-4c0-1.1 0.8-2.1 2-2.2q1.2-0.2 2.5-0.4 0.1 0 0.2-0.2 0.6-2.1 1.7-4.1 0.1-0.1 0-0.2-0.8-1-1.6-2.1c-0.6-0.9-0.5-2.2 0.3-3l2.7-2.7c0.8-0.8 2.1-0.9 3-0.3q1 0.8 2.1 1.6 0.1 0.1 0.2 0 2-1.1 4.1-1.7 0.2-0.1 0.2-0.2 0.2-1.3 0.4-2.5c0.1-1.2 1.1-2 2.2-2h4c1.1 0 2.1 0.8 2.2 2q0.2 1.2 0.4 2.5 0 0.1 0.2 0.2 2.1 0.6 4.1 1.7 0.1 0.1 0.2 0 1.1-0.8 2.1-1.6c0.9-0.6 2.2-0.5 3 0.3l2.7 2.7c0.8 0.8 0.9 2.1 0.3 3q-0.8 1-1.6 2.1-0.1 0.1 0 0.2 1.1 2 1.7 4.1 0.1 0.2 0.2 0.2 1.3 0.2 2.5 0.4c1.2 0.1 2 1.1 2 2.2zm-2.1 4v-4c0-0.1 0-0.2-0.2-0.2q-1.2-0.2-2.5-0.4c-0.9-0.1-1.6-0.7-1.9-1.6q-0.5-1.9-1.5-3.6c-0.4-0.8-0.4-1.8 0.2-2.6q0.8-1 1.5-2c0.1-0.1 0.1-0.2 0-0.3l-2.8-2.8c-0.1-0.1-0.2-0.1-0.3 0q-1 0.7-2 1.5c-0.8 0.6-1.8 0.6-2.6 0.2q-1.7-1-3.6-1.5c-0.9-0.3-1.5-1-1.6-1.9q-0.2-1.3-0.4-2.5c0-0.2-0.1-0.2-0.2-0.2h-4c-0.1 0-0.2 0-0.2 0.2q-0.2 1.2-0.4 2.5c-0.1 0.9-0.7 1.6-1.6 1.9q-1.9 0.5-3.6 1.5c-0.8 0.4-1.8 0.4-2.6-0.2q-1-0.8-2-1.5c-0.1-0.1-0.2-0.1-0.3 0l-2.8 2.8c-0.1 0.1-0.1 0.2 0 0.3q0.7 1 1.5 2c0.6 0.8 0.6 1.8 0.2 2.6q-1 1.7-1.5 3.6c-0.3 0.9-1 1.5-1.9 1.6q-1.3 0.2-2.5 0.4c-0.2 0-0.2 0.1-0.2 0.2v4c0 0.1 0 0.2 0.2 0.2q1.2 0.2 2.5 0.4c0.9 0.1 1.6 0.7 1.9 1.6q0.5 1.9 1.5 3.6c0.4 0.8 0.4 1.8-0.2 2.6q-0.8 1-1.5 2c-0.1 0.1-0.1 0.2 0 0.3l2.8 2.8c0.1 0.1 0.2 0.1 0.3 0q1-0.7 2-1.5c0.4-0.3 0.9-0.5 1.4-0.5q0.6 0 1.2 0.3 1.7 1 3.6 1.5c0.9 0.3 1.5 1 1.6 1.9q0.2 1.3 0.4 2.5c0 0.2 0.1 0.2 0.2 0.2h4c0.1 0 0.2 0 0.2-0.2q0.2-1.2 0.4-2.5c0.1-0.9 0.7-1.6 1.6-1.9q1.9-0.5 3.6-1.5c0.8-0.4 1.8-0.4 2.6 0.2q1 0.8 2 1.5c0.1 0.1 0.2 0.1 0.3 0l2.8-2.8c0.1-0.1 0.1-0.2 0-0.3q-0.7-1-1.5-2c-0.6-0.8-0.6-1.8-0.2-2.6q1-1.7 1.5-3.6c0.3-0.9 1-1.5 1.9-1.6q1.3-0.2 2.5-0.4c0.2 0 0.2-0.1 0.2-0.2zm-10.3-2c0 5.3-4.3 9.6-9.6 9.6-5.3 0-9.6-4.3-9.6-9.6 0-5.3 4.3-9.6 9.6-9.6 5.3 0 9.6 4.3 9.6 9.6zm-2.1 0c0-4.1-3.4-7.5-7.5-7.5-4.1 0-7.5 3.4-7.5 7.5 0 4.1 3.4 7.5 7.5 7.5 4.1 0 7.5-3.4 7.5-7.5z"/>
		</g>
	</g>
</svg>